<svg width="28" height="28" viewBox="0 0 28 28" fill="none" xmlns="http://www.w3.org/2000/svg">
<path d="M2.33398 8.16732L7.47898 3.02232C7.69605 2.80396 7.95419 2.63071 8.23852 2.51257C8.52285 2.39444 8.82775 2.33374 9.13565 2.33399H18.8657C19.1735 2.33374 19.4784 2.39444 19.7628 2.51257C20.0471 2.63071 20.3052 2.80396 20.5223 3.02232L25.6673 8.16732" stroke="white" stroke-width="2.33333" stroke-linecap="round" stroke-linejoin="round"/>
<path d="M4.66602 14V23.3333C4.66602 23.9522 4.91185 24.5457 5.34943 24.9832C5.78702 25.4208 6.38051 25.6667 6.99935 25.6667H20.9993C21.6182 25.6667 22.2117 25.4208 22.6493 24.9832C23.0868 24.5457 23.3327 23.9522 23.3327 23.3333V14" stroke="white" stroke-width="2.33333" stroke-linecap="round" stroke-linejoin="round"/>
<path d="M17.5 25.666V20.9993C17.5 20.3805 17.2542 19.787 16.8166 19.3494C16.379 18.9118 15.7855 18.666 15.1667 18.666H12.8333C12.2145 18.666 11.621 18.9118 11.1834 19.3494C10.7458 19.787 10.5 20.3805 10.5 20.9993V25.666" stroke="white" stroke-width="2.33333" stroke-linecap="round" stroke-linejoin="round"/>
<path d="M2.33398 8.16602H25.6673" stroke="white" stroke-width="2.33333" stroke-linecap="round" stroke-linejoin="round"/>
<path d="M25.6673 8.16602V11.666C25.6673 12.2849 25.4215 12.8783 24.9839 13.3159C24.5463 13.7535 23.9528 13.9993 23.334 13.9993C22.6523 13.9618 22.0013 13.7039 21.479 13.2643C21.3398 13.1638 21.1724 13.1096 21.0007 13.1096C20.8289 13.1096 20.6615 13.1638 20.5223 13.2643C20 13.7039 19.349 13.9618 18.6673 13.9993C17.9857 13.9618 17.3347 13.7039 16.8123 13.2643C16.6731 13.1638 16.5057 13.1096 16.334 13.1096C16.1622 13.1096 15.9949 13.1638 15.8557 13.2643C15.3333 13.7039 14.6823 13.9618 14.0007 13.9993C13.319 13.9618 12.668 13.7039 12.1457 13.2643C12.0064 13.1638 11.8391 13.1096 11.6673 13.1096C11.4956 13.1096 11.3282 13.1638 11.189 13.2643C10.6666 13.7039 10.0156 13.9618 9.33398 13.9993C8.65234 13.9618 8.00134 13.7039 7.47898 13.2643C7.33978 13.1638 7.1724 13.1096 7.00065 13.1096C6.8289 13.1096 6.66152 13.1638 6.52232 13.2643C5.99997 13.7039 5.34896 13.9618 4.66732 13.9993C4.04848 13.9993 3.45499 13.7535 3.0174 13.3159C2.57982 12.8783 2.33398 12.2849 2.33398 11.666V8.16602" stroke="white" stroke-width="2.33333" stroke-linecap="round" stroke-linejoin="round"/>
</svg>
