<svg width="88" height="88" viewBox="0 0 88 88" fill="none" xmlns="http://www.w3.org/2000/svg">
<mask id="path-1-inside-1_1266_40166" fill="white">
<path d="M0 48C0 25.9086 17.9086 8 40 8C62.0914 8 80 25.9086 80 48C80 70.0914 62.0914 88 40 88C17.9086 88 0 70.0914 0 48Z"/>
</mask>
<path d="M0 48C0 25.9086 17.9086 8 40 8C62.0914 8 80 25.9086 80 48C80 70.0914 62.0914 88 40 88C17.9086 88 0 70.0914 0 48Z" fill="white"/>
<path d="M0 48M80 48M80 48M0 48M40 8M80 48M40 88M0 48M40 88V84C20.1178 84 4 67.8823 4 48H0H-4C-4 72.3005 15.6995 92 40 92V88ZM80 48H76C76 67.8823 59.8823 84 40 84V88V92C64.3005 92 84 72.3005 84 48H80ZM40 8V12C59.8823 12 76 28.1178 76 48H80H84C84 23.6995 64.3005 4 40 4V8ZM40 8V4C15.6995 4 -4 23.6995 -4 48H0H4C4 28.1178 20.1178 12 40 12V8Z" fill="#22C55E" mask="url(#path-1-inside-1_1266_40166)"/>
<path d="M45.3327 60V57.3333C45.3327 55.9188 44.7708 54.5623 43.7706 53.5621C42.7704 52.5619 41.4138 52 39.9993 52H31.9993C30.5849 52 29.2283 52.5619 28.2281 53.5621C27.2279 54.5623 26.666 55.9188 26.666 57.3333V60" stroke="#22C55E" stroke-width="2.66667" stroke-linecap="round" stroke-linejoin="round"/>
<path d="M35.9993 46.6667C38.9449 46.6667 41.3327 44.2789 41.3327 41.3333C41.3327 38.3878 38.9449 36 35.9993 36C33.0538 36 30.666 38.3878 30.666 41.3333C30.666 44.2789 33.0538 46.6667 35.9993 46.6667Z" stroke="#22C55E" stroke-width="2.66667" stroke-linecap="round" stroke-linejoin="round"/>
<path d="M49.334 42.666V50.666" stroke="#22C55E" stroke-width="2.66667" stroke-linecap="round" stroke-linejoin="round"/>
<path d="M53.334 46.666H45.334" stroke="#22C55E" stroke-width="2.66667" stroke-linecap="round" stroke-linejoin="round"/>
<rect x="48" width="40" height="40" rx="20" fill="#22C55E"/>
<path d="M64.4436 25.2511C63.6382 25.2511 62.9436 25.043 62.3599 24.6267C61.7807 24.2059 61.3351 23.6109 61.0229 22.8417C60.7106 22.0725 60.5545 21.1608 60.5545 20.1065V20.0929C60.5545 19.0341 60.7106 18.1224 61.0229 17.3577C61.3351 16.5885 61.7807 15.9958 62.3599 15.5795C62.9436 15.1632 63.6382 14.9551 64.4436 14.9551C65.2535 14.9551 65.948 15.1632 66.5272 15.5795C67.1064 15.9958 67.5521 16.5885 67.8643 17.3577C68.1765 18.1224 68.3326 19.0341 68.3326 20.0929V20.1065C68.3326 21.1608 68.1765 22.0725 67.8643 22.8417C67.5521 23.6109 67.1064 24.2059 66.5272 24.6267C65.948 25.043 65.2535 25.2511 64.4436 25.2511ZM64.4436 23.629C64.8327 23.629 65.1607 23.4887 65.4277 23.2082C65.6992 22.9277 65.905 22.525 66.0453 22.0001C66.1901 21.4752 66.2625 20.844 66.2625 20.1065V20.0929C66.2625 19.3509 66.1901 18.7197 66.0453 18.1993C65.905 17.6744 65.6992 17.274 65.4277 16.998C65.1607 16.7175 64.8327 16.5772 64.4436 16.5772C64.059 16.5772 63.7309 16.7175 63.4594 16.998C63.1925 17.274 62.9866 17.6744 62.8418 18.1993C62.7015 18.7197 62.6314 19.3509 62.6314 20.0929V20.1065C62.6314 20.844 62.7015 21.4752 62.8418 22.0001C62.9866 22.525 63.1925 22.9277 63.4594 23.2082C63.7309 23.4887 64.059 23.629 64.4436 23.629ZM72.5881 25V17.1405H72.4659L70.0633 18.8102V16.9641L72.5949 15.2062H74.6378V25H72.5881Z" fill="white"/>
</svg>
