<svg width="88" height="88" viewBox="0 0 88 88" fill="none" xmlns="http://www.w3.org/2000/svg">
<mask id="path-1-inside-1_1266_40177" fill="white">
<path d="M0 48C0 25.9086 17.9086 8 40 8C62.0914 8 80 25.9086 80 48C80 70.0914 62.0914 88 40 88C17.9086 88 0 70.0914 0 48Z"/>
</mask>
<path d="M0 48C0 25.9086 17.9086 8 40 8C62.0914 8 80 25.9086 80 48C80 70.0914 62.0914 88 40 88C17.9086 88 0 70.0914 0 48Z" fill="white"/>
<path d="M0 48M80 48M80 48M0 48M40 8M80 48M40 88M0 48M40 88V84C20.1178 84 4 67.8823 4 48H0H-4C-4 72.3005 15.6995 92 40 92V88ZM80 48H76C76 67.8823 59.8823 84 40 84V88V92C64.3005 92 84 72.3005 84 48H80ZM40 8V12C59.8823 12 76 28.1178 76 48H80H84C84 23.6995 64.3005 4 40 4V8ZM40 8V4C15.6995 4 -4 23.6995 -4 48H0H4C4 28.1178 20.1178 12 40 12V8Z" fill="#22C55E" mask="url(#path-1-inside-1_1266_40177)"/>
<path d="M53.0681 45.3333C53.6771 48.3217 53.2431 51.4286 51.8386 54.1357C50.4341 56.8429 48.144 58.9867 45.3502 60.2097C42.5563 61.4328 39.4276 61.661 36.4859 60.8565C33.5441 60.0519 30.9671 58.2632 29.1845 55.7885C27.4019 53.3139 26.5216 50.303 26.6904 47.2578C26.8591 44.2127 28.0666 41.3174 30.1117 39.0549C32.1567 36.7923 34.9156 35.2992 37.9282 34.8246C40.9409 34.35 44.0252 34.9225 46.6668 36.4467" stroke="#22C55E" stroke-width="2.66667" stroke-linecap="round" stroke-linejoin="round"/>
<path d="M36 46.6673L40 50.6673L53.3333 37.334" stroke="#22C55E" stroke-width="2.66667" stroke-linecap="round" stroke-linejoin="round"/>
<rect x="48" width="40" height="40" rx="20" fill="#22C55E"/>
<path d="M63.5273 25.2511C62.7219 25.2511 62.0273 25.043 61.4437 24.6267C60.8645 24.2059 60.4188 23.6109 60.1066 22.8417C59.7944 22.0725 59.6383 21.1608 59.6383 20.1065V20.0929C59.6383 19.0341 59.7944 18.1224 60.1066 17.3577C60.4188 16.5885 60.8645 15.9958 61.4437 15.5795C62.0273 15.1632 62.7219 14.9551 63.5273 14.9551C64.3372 14.9551 65.0318 15.1632 65.6109 15.5795C66.1901 15.9958 66.6358 16.5885 66.948 17.3577C67.2602 18.1224 67.4163 19.0341 67.4163 20.0929V20.1065C67.4163 21.1608 67.2602 22.0725 66.948 22.8417C66.6358 23.6109 66.1901 24.2059 65.6109 24.6267C65.0318 25.043 64.3372 25.2511 63.5273 25.2511ZM63.5273 23.629C63.9164 23.629 64.2445 23.4887 64.5114 23.2082C64.7829 22.9277 64.9888 22.525 65.1291 22.0001C65.2738 21.4752 65.3462 20.844 65.3462 20.1065V20.0929C65.3462 19.3509 65.2738 18.7197 65.1291 18.1993C64.9888 17.6744 64.7829 17.274 64.5114 16.998C64.2445 16.7175 63.9164 16.5772 63.5273 16.5772C63.1427 16.5772 62.8146 16.7175 62.5432 16.998C62.2762 17.274 62.0703 17.6744 61.9255 18.1993C61.7853 18.7197 61.7151 19.3509 61.7151 20.0929V20.1065C61.7151 20.844 61.7853 21.4752 61.9255 22.0001C62.0703 22.525 62.2762 22.9277 62.5432 23.2082C62.8146 23.4887 63.1427 23.629 63.5273 23.629ZM69.276 25V23.6222L72.432 20.5069C72.8935 20.0635 73.251 19.6993 73.5043 19.4142C73.7577 19.1246 73.9342 18.8735 74.0337 18.6608C74.1333 18.4437 74.1831 18.2197 74.1831 17.9889V17.9686C74.1831 17.688 74.122 17.4414 73.9998 17.2288C73.8822 17.0161 73.7102 16.8509 73.484 16.7333C73.2577 16.6111 72.9885 16.55 72.6763 16.55C72.3596 16.55 72.0791 16.6179 71.8347 16.7537C71.5904 16.8849 71.4003 17.0681 71.2646 17.3034C71.1289 17.5342 71.061 17.8057 71.061 18.1179V18.1518H69.1674L69.1606 18.1179C69.1606 17.4935 69.3122 16.9437 69.6153 16.4686C69.923 15.9935 70.3461 15.6225 70.8845 15.3555C71.4275 15.0886 72.0564 14.9551 72.7713 14.9551C73.4455 14.9551 74.0383 15.075 74.5496 15.3148C75.0654 15.5546 75.4681 15.8872 75.7577 16.3125C76.0518 16.7378 76.1988 17.2333 76.1988 17.7989V17.8192C76.1988 18.1903 76.1264 18.5545 75.9816 18.912C75.8368 19.2649 75.5925 19.6472 75.2486 20.059C74.9048 20.4707 74.4342 20.9526 73.8369 21.5046L71.475 23.7104L72.0248 22.8146V23.7104L71.475 23.3507H76.3414V25H69.276Z" fill="white"/>
</svg>
