<svg width="88" height="88" viewBox="0 0 88 88" fill="none" xmlns="http://www.w3.org/2000/svg">
<mask id="path-1-inside-1_1266_40188" fill="white">
<path d="M0 48C0 25.9086 17.9086 8 40 8C62.0914 8 80 25.9086 80 48C80 70.0914 62.0914 88 40 88C17.9086 88 0 70.0914 0 48Z"/>
</mask>
<path d="M0 48C0 25.9086 17.9086 8 40 8C62.0914 8 80 25.9086 80 48C80 70.0914 62.0914 88 40 88C17.9086 88 0 70.0914 0 48Z" fill="white"/>
<path d="M0 48M80 48M80 48M0 48M40 8M80 48M40 88M0 48M40 88V84C20.1178 84 4 67.8823 4 48H0H-4C-4 72.3005 15.6995 92 40 92V88ZM80 48H76C76 67.8823 59.8823 84 40 84V88V92C64.3005 92 84 72.3005 84 48H80ZM40 8V12C59.8823 12 76 28.1178 76 48H80H84C84 23.6995 64.3005 4 40 4V8ZM40 8V4C15.6995 4 -4 23.6995 -4 48H0H4C4 28.1178 20.1178 12 40 12V8Z" fill="#22C55E" mask="url(#path-1-inside-1_1266_40188)"/>
<path d="M50.6673 45.3327C50.6673 51.99 43.282 58.9233 40.802 61.0647C40.571 61.2384 40.2897 61.3323 40.0007 61.3323C39.7116 61.3323 39.4304 61.2384 39.1993 61.0647C36.7193 58.9233 29.334 51.99 29.334 45.3327C29.334 42.5037 30.4578 39.7906 32.4582 37.7902C34.4586 35.7898 37.1717 34.666 40.0007 34.666C42.8296 34.666 45.5427 35.7898 47.5431 37.7902C49.5435 39.7906 50.6673 42.5037 50.6673 45.3327Z" stroke="#22C55E" stroke-width="2.66667" stroke-linecap="round" stroke-linejoin="round"/>
<path d="M40 49.334C42.2091 49.334 44 47.5431 44 45.334C44 43.1248 42.2091 41.334 40 41.334C37.7909 41.334 36 43.1248 36 45.334C36 47.5431 37.7909 49.334 40 49.334Z" stroke="#22C55E" stroke-width="2.66667" stroke-linecap="round" stroke-linejoin="round"/>
<rect x="48" width="40" height="40" rx="20" fill="#22C55E"/>
<path d="M63.4051 25.2511C62.5997 25.2511 61.9052 25.043 61.3215 24.6267C60.7423 24.2059 60.2966 23.6109 59.9844 22.8417C59.6722 22.0725 59.5161 21.1608 59.5161 20.1065V20.0929C59.5161 19.0341 59.6722 18.1224 59.9844 17.3577C60.2966 16.5885 60.7423 15.9958 61.3215 15.5795C61.9052 15.1632 62.5997 14.9551 63.4051 14.9551C64.2151 14.9551 64.9096 15.1632 65.4888 15.5795C66.0679 15.9958 66.5136 16.5885 66.8258 17.3577C67.138 18.1224 67.2941 19.0341 67.2941 20.0929V20.1065C67.2941 21.1608 67.138 22.0725 66.8258 22.8417C66.5136 23.6109 66.0679 24.2059 65.4888 24.6267C64.9096 25.043 64.2151 25.2511 63.4051 25.2511ZM63.4051 23.629C63.7943 23.629 64.1223 23.4887 64.3893 23.2082C64.6607 22.9277 64.8666 22.525 65.0069 22.0001C65.1517 21.4752 65.2241 20.844 65.2241 20.1065V20.0929C65.2241 19.3509 65.1517 18.7197 65.0069 18.1993C64.8666 17.6744 64.6607 17.274 64.3893 16.998C64.1223 16.7175 63.7943 16.5772 63.4051 16.5772C63.0205 16.5772 62.6925 16.7175 62.421 16.998C62.154 17.274 61.9482 17.6744 61.8034 18.1993C61.6631 18.7197 61.593 19.3509 61.593 20.0929V20.1065C61.593 20.844 61.6631 21.4752 61.8034 22.0001C61.9482 22.525 62.154 22.9277 62.421 23.2082C62.6925 23.4887 63.0205 23.629 63.4051 23.629ZM72.7035 25.2172C71.9659 25.2172 71.3189 25.095 70.7624 24.8507C70.2103 24.6018 69.7737 24.2579 69.4524 23.819C69.1312 23.3756 68.9457 22.8621 68.8959 22.2784L68.8891 22.1901H70.8506L70.8574 22.2648C70.889 22.5182 70.9818 22.7444 71.1356 22.9435C71.294 23.1381 71.5067 23.2919 71.7736 23.405C72.0406 23.5136 72.3505 23.5679 72.7035 23.5679C73.0519 23.5679 73.355 23.5091 73.6129 23.3915C73.8754 23.2693 74.0767 23.1019 74.217 22.8892C74.3618 22.6765 74.4342 22.4322 74.4342 22.1562V22.1426C74.4342 21.6721 74.2668 21.3123 73.9319 21.0635C73.6016 20.8146 73.1401 20.6902 72.5474 20.6902H71.4275V19.231H72.5202C72.8641 19.231 73.1627 19.1744 73.4161 19.0613C73.6695 18.9482 73.8663 18.7921 74.0066 18.593C74.1469 18.3894 74.217 18.1563 74.217 17.8939V17.8803C74.217 17.6088 74.1559 17.3758 74.0337 17.1813C73.9161 16.9822 73.7419 16.8306 73.5111 16.7265C73.2849 16.6179 73.0111 16.5636 72.6899 16.5636C72.3686 16.5636 72.0858 16.6179 71.8415 16.7265C71.5972 16.8351 71.4026 16.9912 71.2578 17.1948C71.113 17.3939 71.0271 17.6292 70.9999 17.9007L70.9931 17.9618H69.1063L69.1131 17.8803C69.1629 17.2921 69.3393 16.7831 69.6425 16.3532C69.9502 15.9188 70.3619 15.584 70.8777 15.3487C71.3981 15.1089 72.0021 14.989 72.6899 14.989C73.3912 14.989 74.0021 15.0999 74.5224 15.3216C75.0428 15.5388 75.4432 15.8442 75.7237 16.2378C76.0088 16.627 76.1513 17.084 76.1513 17.6088V17.6224C76.1513 18.0296 76.0608 18.3871 75.8798 18.6948C75.6988 19.0025 75.4545 19.2558 75.1468 19.4549C74.8391 19.654 74.493 19.7943 74.1084 19.8757V19.9165C74.8369 19.9843 75.4206 20.2196 75.8595 20.6223C76.2984 21.025 76.5178 21.5589 76.5178 22.2241V22.2376C76.5178 22.8304 76.3572 23.3507 76.0359 23.7987C75.7192 24.2466 75.2758 24.595 74.7057 24.8439C74.1355 25.0928 73.4681 25.2172 72.7035 25.2172Z" fill="white"/>
</svg>
