<svg width="88" height="88" viewBox="0 0 88 88" fill="none" xmlns="http://www.w3.org/2000/svg">
<mask id="path-1-inside-1_1266_40199" fill="white">
<path d="M0 48C0 25.9086 17.9086 8 40 8C62.0914 8 80 25.9086 80 48C80 70.0914 62.0914 88 40 88C17.9086 88 0 70.0914 0 48Z"/>
</mask>
<path d="M0 48C0 25.9086 17.9086 8 40 8C62.0914 8 80 25.9086 80 48C80 70.0914 62.0914 88 40 88C17.9086 88 0 70.0914 0 48Z" fill="white"/>
<path d="M0 48M80 48M80 48M0 48M40 8M80 48M40 88M0 48M40 88V84C20.1178 84 4 67.8823 4 48H0H-4C-4 72.3005 15.6995 92 40 92V88ZM80 48H76C76 67.8823 59.8823 84 40 84V88V92C64.3005 92 84 72.3005 84 48H80ZM40 8V12C59.8823 12 76 28.1178 76 48H80H84C84 23.6995 64.3005 4 40 4V8ZM40 8V4C15.6995 4 -4 23.6995 -4 48H0H4C4 28.1178 20.1178 12 40 12V8Z" fill="#22C55E" mask="url(#path-1-inside-1_1266_40199)"/>
<path d="M44.0007 34.666H32.0007C31.2934 34.666 30.6151 34.947 30.115 35.4471C29.6149 35.9472 29.334 36.6254 29.334 37.3327V58.666C29.334 59.3733 29.6149 60.0515 30.115 60.5516C30.6151 61.0517 31.2934 61.3327 32.0007 61.3327H48.0007C48.7079 61.3327 49.3862 61.0517 49.8863 60.5516C50.3864 60.0515 50.6673 59.3733 50.6673 58.666V41.3327L44.0007 34.666Z" stroke="#22C55E" stroke-width="2.66667" stroke-linecap="round" stroke-linejoin="round"/>
<path d="M42.666 34.666V39.9993C42.666 40.7066 42.947 41.3849 43.4471 41.885C43.9472 42.3851 44.6254 42.666 45.3327 42.666H50.666" stroke="#22C55E" stroke-width="2.66667" stroke-linecap="round" stroke-linejoin="round"/>
<path d="M36 52.0007L38.6667 54.6673L44 49.334" stroke="#22C55E" stroke-width="2.66667" stroke-linecap="round" stroke-linejoin="round"/>
<rect x="48" width="40" height="40" rx="20" fill="#22C55E"/>
<path d="M63.2219 25.2511C62.4165 25.2511 61.7219 25.043 61.1382 24.6267C60.5591 24.2059 60.1134 23.6109 59.8012 22.8417C59.489 22.0725 59.3329 21.1608 59.3329 20.1065V20.0929C59.3329 19.0341 59.489 18.1224 59.8012 17.3577C60.1134 16.5885 60.5591 15.9958 61.1382 15.5795C61.7219 15.1632 62.4165 14.9551 63.2219 14.9551C64.0318 14.9551 64.7264 15.1632 65.3055 15.5795C65.8847 15.9958 66.3304 16.5885 66.6426 17.3577C66.9548 18.1224 67.1109 19.0341 67.1109 20.0929V20.1065C67.1109 21.1608 66.9548 22.0725 66.6426 22.8417C66.3304 23.6109 65.8847 24.2059 65.3055 24.6267C64.7264 25.043 64.0318 25.2511 63.2219 25.2511ZM63.2219 23.629C63.611 23.629 63.939 23.4887 64.206 23.2082C64.4775 22.9277 64.6834 22.525 64.8236 22.0001C64.9684 21.4752 65.0408 20.844 65.0408 20.1065V20.0929C65.0408 19.3509 64.9684 18.7197 64.8236 18.1993C64.6834 17.6744 64.4775 17.274 64.206 16.998C63.939 16.7175 63.611 16.5772 63.2219 16.5772C62.8373 16.5772 62.5092 16.7175 62.2377 16.998C61.9708 17.274 61.7649 17.6744 61.6201 18.1993C61.4799 18.7197 61.4097 19.3509 61.4097 20.0929V20.1065C61.4097 20.844 61.4799 21.4752 61.6201 22.0001C61.7649 22.525 61.9708 22.9277 62.2377 23.2082C62.5092 23.4887 62.8373 23.629 63.2219 23.629ZM73.5111 25V23.2014H68.7126V21.5929C68.9615 21.1494 69.2126 20.7105 69.466 20.2762C69.7194 19.8373 69.975 19.4029 70.233 18.973C70.4954 18.5387 70.7556 18.1111 71.0135 17.6903C71.2759 17.265 71.5383 16.8464 71.8008 16.4347C72.0632 16.0184 72.3257 15.6089 72.5881 15.2062H75.4658V21.5589H76.7418V23.2014H75.4658V25H73.5111ZM70.5587 21.6132H73.5519V16.7604H73.4433C73.2532 17.0546 73.0587 17.3555 72.8596 17.6631C72.665 17.9708 72.4682 18.2853 72.2691 18.6065C72.0745 18.9278 71.8777 19.2513 71.6786 19.5771C71.484 19.8984 71.2917 20.2219 71.1017 20.5477C70.9162 20.8689 70.7352 21.1879 70.5587 21.5046V21.6132Z" fill="white"/>
</svg>
